<?xml version="1.0" encoding="UTF-8" standalone="no"?>
<svg xmlns="http://www.w3.org/2000/svg" height="65" width="356" version="1.1" viewBox="0 0 356 65">
 <path id="path6" d="m155.05 39.486h-17.36q-4.4399 0-4.4399 2.8v2.8399q0 2.64 4.7199 2.64h12.52q4.5599 0 4.5599-4v-4.2799zm3.6399 5.3599q0 6.0799-8.8798 6.0799h-11.08q-9.3198 0-9.3198-5.8399v-2.7199q0-6.0399 9.1198-6.0399h16.48q-.35999-3.0799-4.5999-3.0799h-4.5999q-1.36 0-1.36-1.6 0-1.52 1.36-1.52h3.9999q8.8798 0 8.8798 6.2399v8.4798z"/>
 <path id="path8" d="m167.13 39.126h20.32v-3.0799q0-2.7999-4.3599-2.7999h-10.16q-5.7999 0-5.7999 2.9999v2.8799zm24 1.52q0 1.72-1.72 1.72h-22.28v2.5999q0 2.8 5.7999 2.8h4.1599q1.6 0 1.6 1.5599 0 1.6-1.6 1.6h-3.1599q-10.56 0-10.56-6.4399v-7.9998q0-6.3599 10.44-6.3599h8.5198q8.7998 0 8.7998 5.5599v4.9599z"/>
 <path id="path10" d="m204.41 33.246q-5.3999 0-5.3999 3.1999v13q0 1.68-1.92 1.68-1.88 0-1.88-1.68v-13q0-6.3199 9.5998-6.3199h1.72q1.4 0 1.4 1.56t-1.16 1.56h-2.36z"/>
 <path id="path12" d="m234.04 36.246q0-2.9999-5.3599-2.9999h-8.6398q-5.7999 0-5.7999 3.3199v8.0398q0 3.16 5.7999 3.16h8.6398q5.3599 0 5.3599-3.16v-8.3598zm3.8399 8.3598q0 6.3199-9.7998 6.3199h-7.5998q-9.9998 0-9.9998-6.3199v-8.0398q0-6.4399 10.12-6.4399h7.4799q9.7998 0 9.7998 6.3999v8.0798z"/>
 <path id="path14" d="m267.06 36.686q0-3.44-5.9599-3.44h-14.56v11.4q0 3.12 6.1999 3.12h9.0798q5.2399 0 5.2399-3.36v-7.7198zm3.7999 7.7998q0 6.4399-10.4 6.4399h-6.9999q-10.68 0-10.68-6.2799v-19.44q0-1.68 1.88-1.68t1.88 1.68v4.9199h13.92q10.4 0 10.4 6.3999v7.9598z"/>
 <path id="path16" d="m299.11 36.246q0-2.9999-5.3599-2.9999h-8.6398q-5.7999 0-5.7999 3.3199v8.0398q0 3.16 5.7999 3.16h8.6398q5.3599 0 5.3599-3.16v-8.3598zm3.8399 8.3598q0 6.3199-9.7998 6.3199h-7.5999q-9.9998 0-9.9998-6.3199v-8.0398q0-6.4399 10.12-6.4399h7.4799q9.7998 0 9.7998 6.3999v8.0798z"/>
 <path id="path18" d="m312.75 33.246v16.2q0 1.68-1.84 1.68-1.92 0-1.92-1.68v-16.2h-1.84q-1.6 0-1.6-1.6 0-1.52 1.6-1.52h1.84v-4.9199q0-1.68 1.96-1.68 1.8 0 1.8 1.68v4.9199h7.5598q1.56 0 1.56 1.56t-1.56 1.56h-7.5598z"/>
 <path id="path20" d="m342.21 37.286 12.4 10.76q.63999.6.63999 1.2799 0 .68-.55999 1.2-.51999.52-1.32.52-.67999 0-1.36-.56l-12.52-10.76-12.32 10.72q-.67999.6-1.4.6-.75999 0-1.36-.52-.55998-.56-.55998-1.28-.04-.3599.15999-.6399.24-.28.59999-.6l12.24-10.72-12.32-10.76q-.71998-.6-.71998-1.32 0-.68.55999-1.16.55998-.52 1.36-.52.35999 0 .67999.16.35999.16.67998.4l12.4 10.92 12.44-10.88q.63999-.6 1.36-.6.79998 0 1.36.52.55999.52.55999 1.2-.04.32-.2.68-.11999.32-.47999.64l-12.32 10.72z"/>
 <path id="path4" d="m97.389 34.688c-.35947 0-.70815.01097-1.0518.02673.16317.82570.24889 1.6851.24889 2.5711 0 .88083-.0855 1.735-.24689 2.5567.34301.0157.69103.02633 1.0498.02633 4.2258 0 7.4603-1.1217 7.4603-2.5906s-3.2345-2.5902-7.4603-2.5902z"/>
 <path id="path6-0" d="m101.06 37.503c-4.0594-24.161-1.6209-26.773-.0796-26.78 1.5413.0072 3.7265 5.4125 0 26.78-3.7265 21.361-1.3676 26.788 0 26.788 1.3604 0 4.139-2.6194.0796-26.788z"/>
 <path id="path10-1" d="m12.967 25.81c1.8452 0 3.5746.38351 5.1086 1.0854.15196-4.4935 3.1911-8.618 8.0898-10.405 4.8119-1.7511 9.7107-.61506 12.735 2.6049 1.2012-3.7338 3.372-7.3373 6.5051-10.47 9.537-9.537 23.437-10.21 32.091-1.5557 4.8626 4.8626 6.7801 11.375 5.8394 17.844.28220-.02171.55717-.02894.83937-.02894 7.0333 0 12.41 5.3691 12.41 12.402 0 6.8742-5.1375 12.171-11.939 12.402v.01448c-27.091.47034-41.744.21708-72.736.07236-6.4617 0-10.89-5.55-10.89-12.019 0-6.7729 5.1737-11.947 11.947-11.947z" stroke="#000" stroke-linecap="round" stroke-width="2.0405" fill="none"/>
</svg>
