<?xml version="1.0"?>
<svg xmlns="http://www.w3.org/2000/svg" xml:space="preserve" height="262" width="262" version="1.1" viewBox="0 0 262 262">
  <path fill="#ee220c" d="m68.05 33.62h15.594v15.594h-15.594v-15.594z"/>
  <path fill="#fae232" d="m191.65 201.32-9.6665 27.781-13.969 10.055c1.8469 4.2434 4.4338 8.2432 7.9042 11.714 14.836 14.836 38.912 14.836 53.749 0 9.3886-9.3886 12.782-22.471 10.288-34.571l-48.306-14.979z"/>
  <path fill="#ff9300" d="m210.23 163.46c-33.3 16.471-33.222 45.279-30.271 60.855-3.9595-3.6219-8.0752-9.5932-9.4631-19.218-9.7264 16.34-6.1436 33.916 7.0679 47.232 6.1995-4.7501 22.178-20.095 20.162-45.406 7.7948 4.4101 12.778 17.25 13.316 29.556 3.862-3.1529 7.5244-8.8449 9.0952-14.941 6.341 7.1761 9.2694 18.898 7.651 30.792h.15275c19.812-14.43 16.592-53.44-6.9081-65.492 2.8614 6.537 2.8159 13.291 1.7079 18.961-8.5505-8.9894-18.059-18.284-12.511-42.338z"/>
  <path fill="#ee220c" d="m65.888 66.345h19.906c8.2175 0 12.39 0 16.823 1.4046 4.8501 1.7652 8.6708 5.5858 10.436 10.436 1.4046 4.432 1.4046 8.6045 1.4046 16.95v135.91c0 8.2175 0 12.39-1.4046 16.822-1.7652 4.85-5.5859 8.6706-10.436 10.436-4.4375 1.4125-8.6125 1.4125-16.963 1.4125h-19.779c-8.2175 0-12.39 0-16.822-1.4046-4.85-1.7652-8.6706-5.5859-10.436-10.436-1.4-4.4375-1.4-8.6125-1.4-16.95v-135.91c0-8.2175 0-12.39 1.4046-16.822 1.7652-4.8501 5.5859-8.6706 10.436-10.436 4.432-1.4046 8.6045-1.4046 16.95-1.4046h-.12738z"/>
  <path fill="#ee220c" d="m103.15 57.545c15.08 15.08 15.08 39.53 0 54.611-15.08 15.08-39.53 15.08-54.611 0-15.08-15.08-15.08-39.53 0-54.611 15.08-15.08 39.53-15.08 54.611 0z"/>
  <g fill="none">
    <path d="m70.188 26.295c42.926 2.3648 82.136 28.376 105.04 69.685 6.4118 11.562 11.346 24.099 14.656 37.236" stroke="#5e5e5e" stroke-width="6.25"/>
    <path d="m72.225 27.52-42.665-24.567" stroke="#929292" stroke-width="6.25"/>
    <path d="m72.225 24.195-42.665 24.567" stroke="#929292" stroke-width="6.25"/>
  </g>
  <path fill="#ee220c" d="m85.325 18.02c5.2415 5.2415 5.2415 13.74 0 18.981-5.2415 5.2415-13.74 5.2415-18.981 0-5.2415-5.2415-5.2415-13.74 0-18.981 5.2414-5.2415 13.74-5.2415 18.981 0z"/>
  <path d="m85.338 18.026c5.2415 5.2415 5.2415 13.74 0 18.981-5.2415 5.2415-13.74 5.2415-18.981 0-5.2415-5.2415-5.2415-13.74 0-18.981 5.2415-5.2415 13.74-5.2415 18.981 0z" stroke="#b51700" stroke-width="2.5" fill="none"/>
  <path d="m208.16 149.43-17.074-43.765-18.35 4.917 7.0815 46.442 28.344-7.5946z" fill="#5e5e5e"/>
  <path d="m74.625 46.857c-8.1322 2.7754-15.291 7.8388-20.616 14.582-5.2502 6.6484-8.4998 14.654-9.3686 23.08l-.08425 153.45c-.23475 3.5132.40438 7.0299 1.8605 10.236 2.2566 4.9684 6.3102 8.8985 11.346 11-3.5956.26338-7.1916-.50575-10.365-2.2168-6.0331-3.2531-9.9188-9.4315-10.237-16.279l-.1025-157.55c.6825-11.754 6.6802-22.558 16.295-29.352 6.2309-4.4031 13.644-6.8268 21.272-6.955z" fill="#b51700"/>
  <path d="m44.85 94.92h61.988v72.852h-61.988v-72.852z" fill="#d6d5d5"/>
</svg>
