<?xml version="1.0"?>
<svg xmlns="http://www.w3.org/2000/svg" xml:space="preserve" height="512" width="512" version="1.1" viewBox="0 0 128 128">
  <circle cy="64" cx="64" r="64" fill="#e16b5a"/>
  <path fill="#263740" d="m91 25c0 2.2-1.8 4-4 4h-46c-2.2 0-4-1.8-4-4v-2c0-2.2 1.8-4 4-4h46c2.2 0 4 1.8 4 4v2z"/>
  <path fill="#1e2c33" d="m87 19h-4c2.2 0 4 1.8 4 4v2c0 2.2-1.8 4-4 4h4c2.2 0 4-1.8 4-4v-2c0-2.2-1.8-4-4-4z"/>
  <path fill="#263740" d="m91 105c0 2.2-1.8 4-4 4h-46c-2.2 0-4-1.8-4-4v-2c0-2.2 1.8-4 4-4h46c2.2 0 4 1.8 4 4v2z"/>
  <path fill="#1e2c33" d="m87 99h-4c2.2 0 4 1.8 4 4v2c0 2.2-1.8 4-4 4h4c2.2 0 4-1.8 4-4v-2c0-2.2-1.8-4-4-4z"/>
  <rect height="10" width="6" y="58" x="61" fill="#e6e6e6"/>
  <path fill="#e6e6e6" d="m44 29v10c0 11.046 8.954 24 20 24s20-12.954 20-24v-10h-40z"/>
  <path fill="#ccc" d="m80 29v11c0 9.141-6.134 19.579-14.508 22.912 10.349-1.096 18.508-13.369 18.508-23.912v-10h-4z"/>
  <path fill="#e6e6e6" d="m44 99v-10c0-11.046 8.954-24 20-24s20 12.954 20 24v10h-40z"/>
  <g fill="#ccc">
    <path d="m65.492 65.088c8.374 3.333 14.508 13.771 14.508 22.912v11h4v-10c0-10.543-8.159-22.816-18.508-23.912z"/>
    <rect height="14" width="2" y="58" x="63"/>
    <path d="m64 72c-8.617 0-16 10.997-16 20v7h32v-7c0-9.003-7.383-20-16-20z"/>
    <path d="m49.232 45.759c2.448 6.956 8.254 13.241 14.768 13.241 5.188 0 9.923-3.985 12.875-9.12-8.046-.446-19.716-5.275-27.643-4.121z"/>
  </g>
</svg>
