<?xml version="1.0"?>
<svg xmlns="http://www.w3.org/2000/svg" xml:space="preserve" version="1.1" viewBox="0 0 512 512">
  <path fill="#ff7069" d="m91.503 455.19c2.5824-.64561 5.3797-1.0764 8.1781-1.0764 9.899 0 18.723 4.7341 24.104 12.267 3.8737-13.774 16.356-23.888 31.42-23.888 2.7972 0 5.5957.4308 8.1781 1.0764 2.1516-15.495 15.495-27.546 31.635-27.546 11.19 0 21.305 5.8105 26.901 14.634 6.4561-6.0253 15.065-9.6842 24.533-9.6842 11.406 0 21.305 5.3797 27.761 13.558 5.8105-14.849 20.23-25.61 37.231-25.61 20.66 0 37.661 15.711 39.598 35.725 1.722-.4308 3.6588-.4308 5.5957-.4308 9.4693 0 18.077 4.7341 23.027 12.052 5.5957-4.3044 12.697-6.8869 20.23-6.8869 12.267 0 22.812 6.4561 28.838 16.356-23.458 14.849-49.282 26.47-76.614 34.433-9.4693-1.506-17.431-7.7473-21.305-16.356-5.8105 3.228-12.267 4.9501-19.368 4.9501-13.558 0-25.61-6.8869-32.926-17.431-5.5957 12.052-17.862 20.445-32.28 20.445-13.558 0-25.395-7.7473-31.42-18.939-5.3797 4.3045-12.483 6.8869-20.014 6.8869-2.5824 0-5.1649-.21481-7.5325-.86041-.86042 7.5325-4.5193 14.419-9.6841 19.368-31.205-9.6842-60.258-24.533-86.298-43.041h.21363zm208.54 55.093c-10.545 1.0764-21.305 1.722-32.066 1.722h-.21481c2.3676-6.6709 9.0385-11.621 16.571-11.621 6.8857 0 12.912 4.0885 15.709 9.899zm-69.296-.64561c-5.5957-.64561-11.19-1.506-16.786-2.5824.21481-4.5193 4.0885-7.9621 8.3929-7.9621 4.7341 0 8.6077 3.8736 8.6077 8.6077 0 .64561 0 1.2912-.21481 1.9368z"/>
  <g fill="#5fdc68" transform="matrix(1.1803 0 0 1.1803 -34.177 -92.3)">
    <path d="m394.03 79.316c-266.39-21.333-194.19 226.64-69.84 149.33 57.07-35.37 37.75-126.18 69.84-149.33z"/>
    <path d="m100.83 205.31c172.12-24.251 134.75 124.72 57.801 83.51-37.744-20.24-35.191-72.206-57.801-83.51z"/>
  </g>
  <path d="m248.39 318.31-4.9501.21481c-18.08-123.95-104.38-133.64-104.59-133.85 62.195 9.6842 104.81 55.308 109.54 133.43v.21599z" fill="#deb900"/>
  <path fill="#5fdc68" d="m412.16 232.88c-203.15-28.623-159.04 147.2-68.221 98.565 44.548-23.888 41.536-85.222 68.221-98.565z"/>
  <g fill="#deb900" transform="matrix(1.1803 0 0 1.1803 -34.177 -92.3)">
    <path d="m235.21 400.05 4.194.729c29.538-106.85 106.48-105.94 106.85-105.94-55.795 1.641-98.28 37.014-111.04 105.21z"/>
    <path d="m365.4 90.439c-144.23 24.251-117.79 258.73-115.05 363.94l-17.322 5.47c-4.38-98.28-18.42-353.73 132.37-369.41z"/>
  </g>
  <path fill="#f7635b" d="m108.07 466.16c8.6077.86042 15.925 5.1649 20.876 11.621 3.6588-13.343 15.925-23.242 30.344-23.242 2.7972 0 5.3797.4308 7.9621 1.0764 2.1516-15.065 15.065-26.686 30.56-26.686 10.975 0 20.66 5.5957 26.04 14.203 6.2413-5.8105 14.419-9.4693 23.673-9.4693 10.975 0 20.66 5.1649 26.901 13.127 5.5957-14.419 19.584-24.749 36.154-24.749 20.014 0 36.37 15.065 38.522 34.648 1.722-.4308 3.4429-.4308 5.3797-.4308 9.2533 0 17.431 4.5193 22.382 11.621 5.3797-4.0885 12.267-6.6709 19.584-6.6709 9.0385 0 17.217 3.6588 23.242 9.6842-44.548 25.824-96.413 40.675-151.72 40.675-58.752 0-113.63-16.786-159.9-45.839v.43198z"/>
</svg>
