<?xml version="1.0"?>
<svg xmlns="http://www.w3.org/2000/svg" xml:space="preserve" viewBox="0 0 512 512" height="512" width="512" version="1.1" y="0px" x="0px">
  <g fill="#3880ce" transform="translate(0 .018005)">
    <path d="m234.65 95.999h-21.328c-5.891 0-10.672-4.781-10.672-10.671s4.781-10.672 10.672-10.672h21.328c5.89 0 10.671 4.781 10.671 10.672s-4.781 10.671-10.671 10.671z"/>
    <path d="m383.97 95.999h-21.328c-5.891 0-10.655-4.781-10.655-10.671s4.765-10.672 10.655-10.672h21.328c5.891 0 10.672 4.781 10.672 10.672s-4.781 10.671-10.672 10.671z"/>
  </g>
  <g fill="#5d9cec" transform="translate(0 .018005)">
    <path d="m213.32 85.328h-31.999c-5.891 0-10.672-4.781-10.672-10.672 0-5.89 4.781-10.656 10.672-10.656h31.999c5.891 0 10.672 4.766 10.672 10.656 0 5.891-4.781 10.672-10.672 10.672z"/>
    <path d="m362.64 85.328h-31.998c-5.891 0-10.656-4.781-10.656-10.672 0-5.89 4.766-10.656 10.656-10.656h31.998c5.891 0 10.672 4.766 10.672 10.656 0 5.891-4.781 10.672-10.672 10.672z"/>
  </g>
  <path fill="#e6e9ed" d="m255.99 160.02c-135.5 0-245.34 28.64-245.34 63.998v170.64c0 35.342 109.84 63.998 245.34 63.998 135.48 0 245.32-28.656 245.32-63.998v-170.64c0-35.359-109.84-63.998-245.32-63.998z"/>
  <path fill="#ac92eb" d="m501.31 224.01c0 35.343-109.84 63.99-245.32 63.99-135.5 0-245.34-28.647-245.34-63.99 0-35.358 109.84-63.998 245.34-63.998 135.48 0 245.32 28.639 245.32 63.998z"/>
  <g fill="#967adc" transform="translate(0 .018005)">
    <path d="m287.97 256.96c-1.64 0-3.296-.375-4.858-1.172-5.234-2.688-7.312-9.109-4.625-14.359l42.671-83.294c2.672-5.234 9.109-7.312 14.344-4.625 5.249 2.688 7.327 9.109 4.64 14.359l-42.671 83.294c-1.891 3.687-5.626 5.797-9.501 5.797z"/>
    <path d="m223.99 256.96c-3.875 0-7.609-2.109-9.5-5.797l-42.671-83.294c-2.688-5.25-.609-11.671 4.641-14.359 5.234-2.688 11.672-.609 14.344 4.625l42.671 83.294c2.687 5.25.609 11.672-4.625 14.359-1.563.797-3.219 1.172-4.86 1.172z"/>
    <path d="m351.99 268.01c-3.734 0-7.359-1.969-9.312-5.453-2.875-5.141-1.047-11.641 4.094-14.516l116.59-65.326c5.141-2.875 11.64-1.047 14.515 4.094s1.047 11.64-4.094 14.531l-116.59 65.31c-1.64.922-3.436 1.36-5.202 1.36z"/>
    <path d="m159.98 268.01c-1.766 0-3.562-.438-5.203-1.359l-116.6-65.31c-5.14-2.891-6.968-9.39-4.094-14.531 2.875-5.141 9.375-6.969 14.516-4.094l116.59 65.326c5.14 2.875 6.968 9.375 4.093 14.516-1.952 3.485-5.577 5.454-9.312 5.454z"/>
  </g>
  <path fill="#a0d468" d="m333.5 241.12c-20.828-4.156-48.343-6.453-77.514-6.453-29.187 0-56.701 2.297-77.529 6.453-18.53 3.719-39.812 9.969-39.812 25.547 0 15.585 21.281 21.835 39.812 25.554 20.828 4.156 48.343 6.437 77.529 6.437 29.171 0 56.686-2.28 77.514-6.437 18.53-3.719 39.811-9.969 39.811-25.554-.0010-15.578-21.281-21.828-39.811-25.547z"/>
  <g fill="#434a54" transform="translate(0 .018005)">
    <path d="m181.32 173.67c-5.891 0-10.672-4.765-10.672-10.656v-109.68c0-5.891 4.781-10.672 10.672-10.672s10.672 4.781 10.672 10.672v109.68c0 5.891-4.781 10.656-10.672 10.656z"/>
    <path d="m330.64 173.67c-5.891 0-10.656-4.765-10.656-10.656v-109.68c0-5.891 4.766-10.672 10.656-10.672s10.671 4.781 10.671 10.672v109.68c0 5.891-4.78 10.656-10.671 10.656z"/>
  </g>
  <rect height="75.53" width="63.981" y="375.88" x="223.99" fill="#3880ce"/>
  <g fill="#5d9cec" transform="translate(0 .018005)">
    <path d="m297.46 463.17c-11.124 0-20.155-4.344-20.155-9.719v-77.654c0-5.375 9.031-9.719 20.155-9.719 11.125 0 20.156 4.344 20.156 9.719v77.654c0 5.375-9.031 9.719-20.156 9.719z"/>
    <path d="m214.49 463.17c-11.125 0-20.155-4.344-20.155-9.719v-77.654c0-5.375 9.03-9.719 20.155-9.719 11.141 0 20.156 4.344 20.156 9.719v77.654c0 5.375-9.015 9.719-20.156 9.719z"/>
  </g>
  <path fill="#ccd1d9" d="m487.62 190.02c-13.25-8.172-31.921-15.438-55.483-21.578-47.186-12.312-109.75-19.093-176.15-19.093-66.42 0-128.98 6.781-176.17 19.093-23.562 6.14-42.233 13.406-55.482 21.578-16.153 9.96-24.34 21.4-24.34 33.99v170.64c0 12.594 8.187 24.03 24.343 33.998 13.249 8.188 31.921 15.438 55.482 21.594 47.186 12.312 109.75 19.093 176.17 19.093 66.404 0 128.96-6.781 176.15-19.094 23.562-6.156 42.233-13.406 55.483-21.594 16.155-9.968 24.358-21.404 24.358-33.998v-170.64c.0010-12.594-8.202-24.031-24.357-33.999zm-71.639 242.23c-25.062 5.781-54.03 10.094-85.341 12.719v-63.217c32.623-2.156 61.107-5.844 85.341-11.031v61.529zm-85.341-71.934v-64.623c31.029-2.531 59.967-6.688 85.341-12.25v65.404c-26.077 5.906-55.78 9.437-85.341 11.469zm-234.65 10.405c24.218 5.188 52.701 8.875 85.325 11.031v63.217c-31.312-2.625-60.279-6.938-85.325-12.719v-61.529zm0-21.937v-65.342c25.358 5.562 54.295 9.719 85.325 12.25v64.623c-36.171-2.468-63.982-6.687-85.325-11.531zm-74.67-92.723c.969.656 1.969 1.297 3.016 1.938 12.265 7.562 29.187 14.351 50.311 20.194v64.967c-9.187-2.812-16.655-5.718-22.687-8.499-27.14-12.469-30.358-24.438-30.64-25.812v-52.788zm181.32 41.1c17.344.999 35.187 1.499 53.343 1.499 18.14 0 35.982-.5 53.326-1.499v64.341c-18.531.844-36.624 1.156-53.326 1.156-19.359 0-37.093-.406-53.343-1.125v-64.372zm234.66-18.968c21.125-5.844 38.046-12.632 50.312-20.194 1.047-.641 2.046-1.281 3.015-1.938v53.287c0 .094-2.64 10.906-24.936 22.531-8.312 4.344-17.891 8.093-28.391 11.343v-65.029zm-352.11-89.115c45.483-11.875 106.14-18.406 170.79-18.406 64.639 0 125.29 6.531 170.78 18.406 50.421 13.156 63.873 28.14 63.873 34.937 0 6.781-13.452 21.765-63.873 34.921-28.639 7.469-63.279 12.828-101.14 15.757-1.641-1-3.562-1.625-5.641-1.625-2.625 0-5.016.938-6.875 2.5-18.469 1.156-37.624 1.781-57.123 1.781-19.516 0-38.671-.625-57.139-1.781-1.859-1.562-4.25-2.5-6.859-2.5-2.094 0-4.016.625-5.656 1.625-37.858-2.929-72.498-8.288-101.14-15.757-50.421-13.156-63.873-28.14-63.873-34.921.001-6.797 13.453-21.781 63.874-34.937zm-63.873 205.58v-53.218c4.156 3.125 9.125 6.25 15.062 9.344 10.719 5.594 23.5 10.499 38.265 14.687v61.187c-41.78-12.376-53.327-25.718-53.327-32zm181.32 51.811v-63.561c16.797.719 34.577 1.094 53.343 1.094 18.749 0 36.529-.375 53.326-1.094v63.561c-17.297 1-35.155 1.531-53.326 1.531-18.188 0-36.046-.531-53.343-1.531zm234.66-19.812v-61.187c14.766-4.188 27.547-9.093 38.265-14.687 5.938-3.094 10.906-6.219 15.062-9.344v53.218c-.0010 6.283-11.546 19.625-53.327 32z"/>
</svg>
