<?xml version="1.0"?>
<svg xmlns="http://www.w3.org/2000/svg" xml:space="preserve" version="1.1" viewBox="0 0 504 504">
  <circle cy="252" cx="252" r="252" fill="#2c9984"/>
  <g fill="#2b3b4e">
    <path d="m346.4 170s-10.3 100 13.7 167.6h-118.2v-167.6h104.5z"/>
    <path d="m157.6 170s10.3 100-13.7 167.6h118.2v-167.6h-104.5z"/>
  </g>
  <path fill="#f9b54c" d="m304.9 310.2c0 45.2-23.7 60.9-53 60.9-29.2 0-53-15.7-53-60.9s23.7-102.9 53-102.9 53 57.7 53 102.9z"/>
  <path fill="#ffd05b" d="m349.4 165.6c0 1.5 0 3-.1 4.4-2 58-44.8 104.3-97.3 104.3-44.6 0-82.3-33.5-93.8-79.2-2.4-9.4-3.6-19.3-3.6-29.5 0-60 43.6-108.7 97.4-108.7 4.5 0 9 .3 13.4 1 12.3 1.9 23.8 6.3 34.1 12.8 29.8 18.6 49.9 54.1 49.9 94.9z"/>
  <path fill="#2b3b4e" d="m299.5 70.8c-10.3-6.5-21.8-10.9-34.1-12.8-4.4-.7-8.9-1-13.4-1-53.8 0-97.4 48.6-97.4 108.7 0 10.2 1.3 20.2 3.6 29.5 62.6-13.1 99-49.1 119.4-79.8 14.5 29.1 40.8 50 71.6 54.7.1-1.5.1-3 .1-4.4.1-40.9-20-76.4-49.8-94.9z"/>
  <path fill="#ff7058" d="m318.9 330.3c-19.1 14.5-42.1 23-66.9 23-25.6 0-49.2-9-68.6-24.3-5 19.3-18.2 35.4-39.8 38.4 18.9 45.8 60.2 77.7 108.3 77.7 38.2 0 72.1-20.1 94-51.3-21.9-10.8-30.9-38.6-27-63.5z"/>
  <path fill="#e6e9ee" d="m420.8 439.2c-11.5 10.4-24 19.7-37.3 27.8 10-58.7 27.2-117.7 27.2-117.7s5.5 45.4 10.1 89.9z"/>
  <path fill="#ced5e0" d="m410.7 349.3s-17.2 58.9-27.2 117.7c-38.3 23.5-83.3 37-131.5 37v-61.7c0-.2.3-.7.7-1.6l.6-1.3c.1-.2.2-.5.3-.7l1.7-3.8c.5-1.1 1-2.3 1.6-3.6 6.1-14.5 17.3-41.3 27.1-69 1.8-5.2 3.6-10.4 5.3-15.5 1-3 2-6.1 2.9-9.1 3.3-10.8 6.2-21.2 8.1-30.5 1.5.4 3.1.8 4.6 1.3 9.4 2.6 19.7 5.7 30.5 9.3 6.7 2.2 13.7 4.6 20.6 7.3 18.5 6.6 37.4 14.7 54.7 24.2z"/>
  <path fill="#fff" d="m324.3 340.1 13.7 33.2-81.2 65.1-4.8 3.8s1.9-4.1 4.8-11.1c10.4-24.5 35.2-84.6 43.5-124.1 1.6-8 2.6-15.1 2.7-21 0 0 19 17.3 32.4 31.5 4.2 4.4 7.8 8.5 10.1 11.6l-21.2 11z"/>
  <path fill="#ced5e0" d="m120.5 467c-13.3-8.1-25.8-17.4-37.2-27.8 4.6-44.4 10.1-89.8 10.1-89.8s2 7 5.1 18.5c.4 1.6.9 3.2 1.3 5 .5 1.7.9 3.5 1.4 5.4s1 3.8 1.5 5.9c.6 2.2 1.1 4.4 1.7 6.7.6 2.5 1.3 5.1 1.9 7.8 1.5 6.3 3.1 13.1 4.7 20.1.7 3.4 1.5 6.8 2.2 10.3 2 9.1 3.9 18.4 5.6 27.9.4 2.3.9 4.6 1.3 6.9 0 1 .2 2.1.4 3.1z"/>
  <path fill="#e6e9ee" d="m252 442.3v61.7c-48.2 0-93.2-13.5-131.5-37-.2-1-.4-2.1-.6-3.1-.4-2.3-.8-4.6-1.3-6.9-1.7-9.5-3.6-18.9-5.6-27.9-.7-3.5-1.5-6.9-2.2-10.3-1.6-7-3.1-13.7-4.7-20.1-.6-2.7-1.3-5.3-1.9-7.8-.6-2.3-1.1-4.6-1.7-6.7-.5-2-1-4-1.5-5.9s-.9-3.7-1.4-5.4-.9-3.4-1.3-5c-3.1-11.5-5.1-18.5-5.1-18.5 17.3-9.5 36.2-17.6 54.7-24.5 7-2.6 13.9-5 20.6-7.3 10.8-3.6 21.1-6.7 30.5-9.3 1.6-.4 3.1-.9 4.6-1.3.3 1.2.5 2.5.8 3.8.9 4.2 2 8.6 3.3 13.1.5 1.9 1 3.7 1.6 5.6.8 2.6 1.6 5.3 2.4 8 .2.7.5 1.4.7 2.1.7 2.4 1.5 4.7 2.3 7.1 1.7 5.1 3.5 10.3 5.3 15.4 2.7 7.6 5.5 15.2 8.3 22.5.9 2.3 1.8 4.6 2.6 6.9.7 1.9 1.5 3.7 2.2 5.5.6 1.5 1.2 3.1 1.8 4.6.7 1.8 1.5 3.6 2.2 5.4.9 2.4 1.9 4.8 2.8 7 2.8 6.7 5.2 12.6 7.2 17.2.6 1.3 1.1 2.5 1.6 3.6l1.7 3.8c.9 2.1 1.5 3.3 1.6 3.7z"/>
  <path fill="#fff" d="m179.7 340.1-13.7 33.3 81.2 65.1 4.8 3.8s-1.9-4.1-4.8-11.1c-10.4-24.5-35.2-84.6-43.5-124.1-1.6-8-2.6-15.1-2.7-21 0 0-19 17.3-32.4 31.5-4.2 4.4-7.8 8.5-10.1 11.6l21.2 10.9z"/>
</svg>
